# xmcd
#
# Track frame offsets: 
#        150
#        15941
#        33903
#        44958
#        57902
#        74324
#        91386
#        105268
#        120282
#        131582
#        146410
#        156590
#        168880
#        189986
#        209366
#        229333
#        245092
#        260833
#        276719
#        293677
#
# Disc length: 4253 seconds
#
# Revision: 2
# Processed by: cddbd v1.5.2PL0 Copyright (c) Steve Scherf et al.
# Submitted via: ExactAudioCopyFreeDBPlugin 1.0
#
DISCID=29109b14
DTITLE=Various Artist - Internationaler ADAC Truck Grand-Prix 2008 (C
DTITLE=D 1)
DYEAR=2008
DGENRE=Country
TTITLE0=The Boss Hoss - Ca plane pour moi
TTITLE1=Bellamy Brothers - Neon Cowboy
TTITLE2=The Twang - Born to be wild
TTITLE3=Dolly Parton and Roy Rivers - Thank God I'm A Country Boy
TTITLE4=Mayor's Destiny - Cross Your Heart
TTITLE5=Tracy Lawrence - Find Out Who Your Friends Are
TTITLE6=Herrmann Lammers Meyer with Willie Nelson and Norma Jean - A Lit
TTITLE6=tle Bit Of Everything In Texas
TTITLE7=Mark Chesnutt - Somebody Save The Honky Tonks
TTITLE8=Smokestack Lightnin - Unknown Stuntman
TTITLE9=Tom Astor - Freunde für ´s Leben
TTITLE10=Night Hawk - Hound Dog
TTITLE11=Danni Leigh - Quarter Over You
TTITLE12=Gunter Gabriel - Ehrbares Mädchen
TTITLE13=Jackson Mackay - Hey, hey the cowboys of the world
TTITLE14=Michael Lonstar and Suzie Candell - You and I
TTITLE15=Linda Feller - Pro Woche zweimal Sonntag
TTITLE16=Pam Tillis - Band in the window
TTITLE17=Kevin Henderson - Angels
TTITLE18=Stan Silver - Higher Ground
TTITLE19=Larry Schuba and Western Union - Solange kannst Du auf mich zäh
TTITLE19=len
EXTD=
EXTT0=
EXTT1=
EXTT2=
EXTT3=
EXTT4=
EXTT5=
EXTT6=
EXTT7=
EXTT8=
EXTT9=
EXTT10=
EXTT11=
EXTT12=
EXTT13=
EXTT14=
EXTT15=
EXTT16=
EXTT17=
EXTT18=
EXTT19=
PLAYORDER=
